<svg xmlns="http://www.w3.org/2000/svg" viewBox="0 0 24 24">
  <path d="M4 4C2.9 4 2 4.9 2 6L2 18C2 19.1 2.9 20 4 20L12.080078 20C12.033078 19.673 12 19.34 12 19C12 15.134 15.134 12 19 12C20.075 12 21.09 12.250594 22 12.683594L22 8C22 6.9 21.1 6 20 6L12 6L10 4L4 4 z M 19.007812 14.015625C17.731188 14.016 16.455016 14.504969 15.478516 15.480469C14.502516 16.456469 14.009766 17.729812 14.009766 19.007812C14.009766 20.285812 14.502516 21.560156 15.478516 22.535156C17.430516 24.487156 20.583156 24.487156 22.535156 22.535156C24.487156 20.583156 24.487156 17.428562 22.535156 15.476562C21.560156 14.502563 20.284437 14.01525 19.007812 14.015625 z M 18.011719 16.001953L20.011719 16.001953L20.011719 18.001953L22.011719 18.001953L22.011719 20.001953L20.011719 20.001953L20.011719 22.001953L18.011719 22.001953L18.011719 20.001953L16.011719 20.001953L16.011719 18.001953L18.011719 18.001953L18.011719 16.001953 z" fill="#648484" />
</svg>