<svg xmlns="http://www.w3.org/2000/svg" viewBox="0 0 48 48">
  <path d="M20.5 4 A 1.50015 1.50015 0 0 0 19.066406 6L14.640625 6C12.796625 6 11.086453 6.9162188 10.064453 8.4492188L7.6972656 12L7.5 12 A 1.50015 1.50015 0 1 0 7.5 15L40.5 15 A 1.50015 1.50015 0 1 0 40.5 12L40.302734 12L37.935547 8.4492188C36.913547 6.9162187 35.202375 6 33.359375 6L28.933594 6 A 1.50015 1.50015 0 0 0 27.5 4L20.5 4 z M 8.9726562 18L11.125 38.085938C11.425 40.887937 13.77575 43 16.59375 43L31.40625 43C34.22325 43 36.574 40.887938 36.875 38.085938L39.027344 18L8.9726562 18 z" fill="#648484" />
</svg>