<svg xmlns="http://www.w3.org/2000/svg" baseProfile="basic" viewBox="0 0 100 100"><path fill="#c7ede6" d="M87.215,57.71C88.35,55.555,89,53.105,89,50.5c0-6.621-4.159-12.257-10.001-14.478C78.999,36.015,79,36.008,79,36c0-11.598-9.402-21-21-21c-9.784,0-17.981,6.701-20.313,15.757C36.211,30.272,34.638,30,33,30c-7.692,0-14.023,5.793-14.89,13.252C12.906,44.353,9,48.969,9,54.5C9,60.851,14.149,66,20.5,66c0.177,0,0.352-0.012,0.526-0.022C21.022,66.153,21,66.324,21,66.5C21,77.822,30.178,87,41.5,87c6.437,0,12.175-2.972,15.934-7.614C59.612,81.611,62.64,83,66,83c4.65,0,8.674-2.65,10.666-6.518C77.718,76.817,78.837,77,80,77c6.075,0,11-4.925,11-11C91,62.689,89.53,59.727,87.215,57.71z"/><path fill="#fdfcef" d="M35.875,37.5c0,0,3.64,0,6.125,0s4.5-2.015,4.5-4.5c0-2.333-1.782-4.229-4.055-4.455C42.467,28.364,42.5,28.187,42.5,28c0-2.485-2.015-4.5-4.5-4.5c-1.438,0-2.703,0.686-3.527,1.736C34.333,22.6,32.171,20.5,29.5,20.5c-2.761,0-5,2.239-5,5c0,0.446,0.077,0.87,0.187,1.282C24.045,26.005,23.086,25.5,22,25.5c-1.781,0-3.234,1.335-3.455,3.055C18.364,28.533,18.187,28.5,18,28.5c-2.485,0-4.5,2.015-4.5,4.5s2.015,4.5,4.5,4.5s9.5,0,9.5,0h5.375V38h3V37.5z"/><path fill="#472b29" d="M29.5,20c-3.033,0-5.5,2.467-5.5,5.5c0,0.016,0,0.031,0,0.047C23.398,25.192,22.71,25,22,25c-1.831,0-3.411,1.261-3.858,3.005C18.095,28.002,18.048,28,18,28c-2.757,0-5,2.243-5,5s2.243,5,5,5h14.875c0.276,0,0.5-0.224,0.5-0.5s-0.224-0.5-0.5-0.5H18c-2.206,0-4-1.794-4-4s1.794-4,4-4c0.117,0,0.23,0.017,0.343,0.032l0.141,0.019c0.021,0.003,0.041,0.004,0.062,0.004c0.246,0,0.462-0.185,0.495-0.437C19.232,27.125,20.504,26,22,26c0.885,0,1.723,0.401,2.301,1.1c0.098,0.118,0.241,0.182,0.386,0.182c0.078,0,0.156-0.018,0.228-0.056c0.209-0.107,0.314-0.346,0.254-0.573C25.054,26.218,25,25.852,25,25.5c0-2.481,2.019-4.5,4.5-4.5c2.381,0,4.347,1.872,4.474,4.263c0.011,0.208,0.15,0.387,0.349,0.45c0.05,0.016,0.101,0.024,0.152,0.024c0.15,0,0.296-0.069,0.392-0.192C35.638,24.563,36.779,24,38,24c2.206,0,4,1.794,4,4c0,0.117-0.017,0.23-0.032,0.343l-0.019,0.141c-0.016,0.134,0.022,0.268,0.106,0.373s0.207,0.172,0.34,0.185C44.451,29.247,46,30.949,46,33c0,2.206-1.794,4-4,4h-6.125c-0.276,0-0.5,0.224-0.5,0.5s0.224,0.5,0.5,0.5H42c2.757,0,5-2.243,5-5c0-2.397-1.689-4.413-4.003-4.877C42.999,28.082,43,28.041,43,28c0-2.757-2.243-5-5-5c-1.176,0-2.293,0.416-3.183,1.164C34.219,21.76,32.055,20,29.5,20L29.5,20z"/><path fill="#472b29" d="M28,27c-1.403,0-2.609,0.999-2.913,2.341C24.72,29.119,24.301,29,23.875,29c-1.202,0-2.198,0.897-2.353,2.068C21.319,31.022,21.126,31,20.937,31c-1.529,0-2.811,1.2-2.918,2.732C18.01,33.87,18.114,33.99,18.251,34c0.006,0,0.012,0,0.018,0c0.13,0,0.24-0.101,0.249-0.232c0.089-1.271,1.151-2.268,2.419-2.268c0.229,0,0.47,0.042,0.738,0.127c0.022,0.007,0.045,0.01,0.067,0.01c0.055,0,0.11-0.02,0.156-0.054C21.962,31.537,22,31.455,22,31.375c0-1.034,0.841-1.875,1.875-1.875c0.447,0,0.885,0.168,1.231,0.473c0.047,0.041,0.106,0.063,0.165,0.063c0.032,0,0.063-0.006,0.093-0.019c0.088-0.035,0.148-0.117,0.155-0.212C25.623,28.512,26.712,27.5,28,27.5c0.208,0,0.425,0.034,0.682,0.107c0.023,0.007,0.047,0.01,0.07,0.01c0.109,0,0.207-0.073,0.239-0.182c0.038-0.133-0.039-0.271-0.172-0.309C28.517,27.04,28.256,27,28,27L28,27z"/><path fill="#472b29" d="M41.883,28.5c-1.326,0-2.508,0.897-2.874,2.182c-0.038,0.133,0.039,0.271,0.172,0.309C39.205,30.997,39.228,31,39.25,31c0.109,0,0.209-0.072,0.24-0.182C39.795,29.748,40.779,29,41.883,29c0.117,0,0.23,0.014,0.342,0.029c0.012,0.002,0.023,0.003,0.035,0.003c0.121,0,0.229-0.092,0.246-0.217c0.019-0.137-0.077-0.263-0.214-0.281C42.158,28.516,42.022,28.5,41.883,28.5L41.883,28.5z"/><path fill="#fff" d="M18.405,59H8.5C8.224,59,8,58.776,8,58.5S8.224,58,8.5,58h9.905c0.276,0,0.5,0.224,0.5,0.5 S18.682,59,18.405,59z"/><path fill="#fff" d="M21.5,59h-1c-0.276,0-0.5-0.224-0.5-0.5s0.224-0.5,0.5-0.5h1c0.276,0,0.5,0.224,0.5,0.5 S21.777,59,21.5,59z"/><path fill="#fff" d="M26.491,61H17.5c-0.276,0-0.5-0.224-0.5-0.5s0.224-0.5,0.5-0.5h8.991c0.276,0,0.5,0.224,0.5,0.5 S26.767,61,26.491,61z"/><path fill="#fff" d="M15.5,61h-1c-0.276,0-0.5-0.224-0.5-0.5s0.224-0.5,0.5-0.5h1c0.276,0,0.5,0.224,0.5,0.5 S15.777,61,15.5,61z"/><path fill="#fff" d="M12.5,61h-2c-0.276,0-0.5-0.224-0.5-0.5s0.224-0.5,0.5-0.5h2c0.276,0,0.5,0.224,0.5,0.5 S12.777,61,12.5,61z"/><path fill="#fff" d="M18.5,63h-2c-0.276,0-0.5-0.224-0.5-0.5s0.224-0.5,0.5-0.5h2c0.276,0,0.5,0.224,0.5,0.5 S18.776,63,18.5,63z"/><path fill="#fff" d="M21.5,54c-0.177,0-0.823,0-1,0c-0.276,0-0.5,0.224-0.5,0.5s0.224,0.5,0.5,0.5c0.177,0,0.823,0,1,0 c0.276,0,0.5-0.224,0.5-0.5S21.776,54,21.5,54z"/><path fill="#fff" d="M21.5,56c-0.177,0-4.823,0-5,0c-0.276,0-0.5,0.224-0.5,0.5s0.224,0.5,0.5,0.5c0.177,0,4.823,0,5,0 c0.276,0,0.5-0.224,0.5-0.5S21.776,56,21.5,56z"/><path fill="#fff" d="M26.5,58c-0.177,0-2.823,0-3,0c-0.276,0-0.5,0.224-0.5,0.5s0.224,0.5,0.5,0.5c0.177,0,2.823,0,3,0 c0.276,0,0.5-0.224,0.5-0.5S26.776,58,26.5,58z"/><path fill="#fff" d="M73.5,27h-10c-0.276,0-0.5-0.224-0.5-0.5s0.224-0.5,0.5-0.5h10c0.276,0,0.5,0.224,0.5,0.5 S73.776,27,73.5,27z"/><path fill="#fff" d="M77.5,27h-2c-0.276,0-0.5-0.224-0.5-0.5s0.224-0.5,0.5-0.5h2c0.276,0,0.5,0.224,0.5,0.5 S77.776,27,77.5,27z"/><path fill="#fff" d="M82.5,29h-10c-0.276,0-0.5-0.224-0.5-0.5s0.224-0.5,0.5-0.5h10c0.276,0,0.5,0.224,0.5,0.5 S82.777,29,82.5,29z"/><path fill="#fff" d="M70.5,29h-1c-0.276,0-0.5-0.224-0.5-0.5s0.224-0.5,0.5-0.5h1c0.276,0,0.5,0.224,0.5,0.5 S70.776,29,70.5,29z"/><path fill="#fff" d="M67.375,29H65.5c-0.276,0-0.5-0.224-0.5-0.5s0.224-0.5,0.5-0.5h1.875c0.276,0,0.5,0.224,0.5,0.5 S67.651,29,67.375,29z"/><path fill="#fff" d="M76.5,25h-5c-0.276,0-0.5-0.224-0.5-0.5s0.224-0.5,0.5-0.5h5c0.276,0,0.5,0.224,0.5,0.5 S76.777,25,76.5,25z"/><path fill="#fff" d="M73.5,31h-2c-0.276,0-0.5-0.224-0.5-0.5s0.224-0.5,0.5-0.5h2c0.276,0,0.5,0.224,0.5,0.5 S73.776,31,73.5,31z"/><path fill="#c5d8ef" d="M37.727,78.3c-2.771,0-5.026-2.215-5.026-4.937V33.637c0-2.722,2.255-4.937,5.026-4.937h20.709L71.3,41.365v31.998c0,2.722-2.255,4.937-5.026,4.937C66.274,78.3,37.727,78.3,37.727,78.3z"/><path fill="#472b29" d="M58.149,29.4l6.212,6.115l6.239,6.143v31.705c0,2.336-1.941,4.237-4.326,4.237H37.726c-2.386,0-4.326-1.901-4.326-4.237V33.637c0-2.336,1.941-4.237,4.326-4.237h0.832h7.869L58.149,29.4 M58.723,28H46.427h-7.869h-0.832C34.577,28,32,30.536,32,33.637v39.726c0,3.1,2.577,5.637,5.726,5.637h28.547C69.423,79,72,76.464,72,73.363V41.071C66.836,35.988,63.886,33.083,58.723,28L58.723,28z"/><path fill="#55a7f9" d="M58.5,29v8.202c0,2.914,2.396,5.298,5.325,5.298H72"/><path fill="#472b29" d="M72,43h-8.175C60.613,43,58,40.399,58,37.202V29h1v8.202C59,39.848,61.165,42,63.825,42H72V43z"/><path fill="#472b29" d="M56.5,32.75h-14c-0.138,0-0.25-0.112-0.25-0.25s0.112-0.25,0.25-0.25h14c0.138,0,0.25,0.112,0.25,0.25S56.638,32.75,56.5,32.75z"/><path fill="#472b29" d="M64.781,74.75H39.219c-1.637,0-2.969-1.332-2.969-2.969V35.219c0-1.637,1.332-2.969,2.969-2.969H40.5c0.138,0,0.25,0.112,0.25,0.25s-0.112,0.25-0.25,0.25h-1.281c-1.361,0-2.469,1.107-2.469,2.469v36.563c0,1.361,1.107,2.469,2.469,2.469h25.563c1.361,0,2.469-1.107,2.469-2.469V60.5c0-0.138,0.112-0.25,0.25-0.25s0.25,0.112,0.25,0.25v11.281C67.75,73.418,66.418,74.75,64.781,74.75z"/><g><path fill="#472b29" d="M67.5,58.75c-0.138,0-0.25-0.112-0.25-0.25v-5c0-0.138,0.112-0.25,0.25-0.25s0.25,0.112,0.25,0.25v5 C67.75,58.638,67.638,58.75,67.5,58.75z"/></g><g><path fill="#472b29" d="M67.5,51.333c-0.138,0-0.25-0.112-0.25-0.25v-2.25c0-0.138,0.112-0.25,0.25-0.25 s0.25,0.112,0.25,0.25v2.25C67.75,51.221,67.638,51.333,67.5,51.333z"/></g><g><path fill="#fdfcef" d="M81.5,70.5c0,0,1.567,0,3.5,0s3.5-1.567,3.5-3.5c0-1.781-1.335-3.234-3.055-3.455 C85.473,63.366,85.5,63.187,85.5,63c0-1.933-1.567-3.5-3.5-3.5c-1.032,0-1.95,0.455-2.59,1.165 c-0.384-1.808-1.987-3.165-3.91-3.165c-2.209,0-4,1.791-4,4c0,0.191,0.03,0.374,0.056,0.558C71.128,61.714,70.592,61.5,70,61.5 c-1.228,0-2.245,0.887-2.455,2.055C67.366,63.527,67.187,63.5,67,63.5c-1.933,0-3.5,1.567-3.5,3.5s1.567,3.5,3.5,3.5s7.5,0,7.5,0 V71h7V70.5z"/><path fill="#472b29" d="M83.25,66C83.112,66,83,65.888,83,65.75c0-1.223,0.995-2.218,2.218-2.218 c0.034,0.009,0.737-0.001,1.244,0.136c0.133,0.036,0.212,0.173,0.176,0.306c-0.036,0.134-0.173,0.213-0.306,0.176 c-0.444-0.12-1.1-0.12-1.113-0.118c-0.948,0-1.719,0.771-1.719,1.718C83.5,65.888,83.388,66,83.25,66z"/><circle cx="76.5" cy="70.5" r=".5" fill="#472b29"/><path fill="#472b29" d="M85,71h-3.5c-0.276,0-0.5-0.224-0.5-0.5s0.224-0.5,0.5-0.5H85c1.654,0,3-1.346,3-3 c0-1.496-1.125-2.768-2.618-2.959c-0.134-0.018-0.255-0.088-0.336-0.196s-0.115-0.244-0.094-0.377C84.975,63.314,85,63.16,85,63 c0-1.654-1.346-3-3-3c-0.85,0-1.638,0.355-2.219,1c-0.125,0.139-0.321,0.198-0.5,0.148c-0.182-0.049-0.321-0.195-0.36-0.379 C78.58,59.165,77.141,58,75.5,58c-1.93,0-3.5,1.57-3.5,3.5c0,0.143,0.021,0.28,0.041,0.418c0.029,0.203-0.063,0.438-0.242,0.54 c-0.179,0.102-0.396,0.118-0.556-0.01C70.878,62.155,70.449,62,70,62c-0.966,0-1.792,0.691-1.963,1.644 c-0.048,0.267-0.296,0.446-0.569,0.405C67.314,64.025,67.16,64,67,64c-1.654,0-3,1.346-3,3s1.346,3,3,3h7.5 c0.276,0,0.5,0.224,0.5,0.5S74.776,71,74.5,71H67c-2.206,0-4-1.794-4-4s1.794-4,4-4c0.059,0,0.116,0.002,0.174,0.006 C67.588,61.82,68.711,61,70,61c0.349,0,0.689,0.061,1.011,0.18C71.176,58.847,73.126,57,75.5,57c1.831,0,3.466,1.127,4.153,2.774 C80.333,59.276,81.155,59,82,59c2.206,0,4,1.794,4,4c0,0.048-0.001,0.095-0.004,0.142C87.739,63.59,89,65.169,89,67 C89,69.206,87.206,71,85,71z"/><path fill="#472b29" d="M79.5,70c-0.159,0-0.841,0-1,0c-0.276,0-0.5,0.224-0.5,0.5s0.224,0.5,0.5,0.5c0.159,0,0.841,0,1,0 c0.276,0,0.5-0.224,0.5-0.5S79.776,70,79.5,70z"/></g><g><path fill="#472b29" d="M40.822,60.152c0-0.271,0.061-0.457,0.182-0.561c0.121-0.103,0.312-0.153,0.574-0.153 c0.476,0,0.718,0.163,0.728,0.49c0.019,0.457,0.163,0.835,0.434,1.134c0.271,0.299,0.677,0.447,1.218,0.447 c1.12,0,1.68-0.602,1.68-1.806v-5.88H44c-0.149,0-0.269-0.065-0.357-0.196c-0.089-0.13-0.133-0.289-0.133-0.476 c0-0.177,0.042-0.329,0.126-0.455s0.206-0.188,0.364-0.188h2.464c0.177,0,0.331,0.044,0.462,0.133s0.196,0.208,0.196,0.356v6.706 c0,1.073-0.285,1.862-0.854,2.366c-0.569,0.504-1.321,0.756-2.254,0.756c-0.943,0-1.71-0.245-2.303-0.735 C41.118,61.602,40.822,60.955,40.822,60.152z"/><path fill="#472b29" d="M48.928,62.252v-9.268c0-0.131,0.054-0.242,0.161-0.336s0.245-0.14,0.413-0.14h2.729 c0.934,0,1.678,0.247,2.233,0.741c0.555,0.495,0.833,1.274,0.833,2.338V55.7c0,1.064-0.287,1.846-0.861,2.345 c-0.573,0.5-1.337,0.749-2.289,0.749h-1.735v3.458c0,0.149-0.073,0.269-0.217,0.357s-0.32,0.133-0.525,0.133 c-0.196,0-0.369-0.044-0.518-0.133S48.928,62.401,48.928,62.252z M50.412,57.618h1.735c0.532,0,0.943-0.151,1.232-0.455 c0.289-0.303,0.434-0.758,0.434-1.365V55.63c0-0.606-0.145-1.059-0.434-1.357s-0.7-0.448-1.232-0.448h-1.735V57.618z"/><path fill="#472b29" d="M56.46,59.704V55.63c0-1.073,0.284-1.861,0.854-2.365s1.316-0.756,2.24-0.756 c0.942,0,1.71,0.235,2.303,0.706c0.593,0.472,0.89,1.1,0.89,1.884c0,0.271-0.059,0.457-0.176,0.56 c-0.116,0.103-0.306,0.154-0.566,0.154c-0.485,0-0.733-0.163-0.742-0.49c-0.103-0.999-0.658-1.498-1.666-1.498 c-1.102,0-1.652,0.603-1.652,1.806v4.074c0,1.204,0.551,1.806,1.652,1.806c0.532,0,0.942-0.149,1.232-0.449 c0.289-0.301,0.434-0.755,0.434-1.365v-1.153h-1.414c-0.149,0-0.266-0.058-0.35-0.173s-0.126-0.256-0.126-0.422 c0-0.147,0.042-0.281,0.126-0.401s0.2-0.18,0.35-0.18h2.408c0.149,0,0.268,0.049,0.356,0.147c0.089,0.098,0.134,0.217,0.134,0.356 v1.834c0,1.073-0.287,1.862-0.861,2.366s-1.337,0.756-2.289,0.756s-1.713-0.252-2.282-0.756S56.46,60.777,56.46,59.704z"/></g></svg>