<svg xmlns="http://www.w3.org/2000/svg" viewBox="0 0 30 30">
  <path d="M4.988 3.9909999999999997A3 3.027 0 104.988 10.045 3 3.027 0 104.988 3.9909999999999997zM10.988 14.072c.553 0 1-.447 1-1s-.447-1-1-1h-1v2H10.988zM4.064 26.018l.426-5.412c.017-.264.235-.47.498-.47h0c.263 0 .48.205.498.47l.45 5.412c.036.548.487.973 1.031.973C7.537 26.991 8 26.524 8 25.948L7.988 15.091c0-.557.448-1.009 1-1.009h1v-.01-2-.009h-6c-1.105 0-2 .904-2 2.018L2 25.948c0 .576.463 1.043 1.033 1.043C3.577 26.991 4.028 26.566 4.064 26.018zM27.012 11.991H15c-.552 0-1 .448-1 1s.448 1 1 1h12.012c.552 0 1-.448 1-1S27.564 11.991 27.012 11.991zM27.012 15.991H15c-.552 0-1 .448-1 1s.448 1 1 1h12.012c.552 0 1-.448 1-1S27.564 15.991 27.012 15.991zM11 15.991A1 1 0 1011 17.991 1 1 0 1011 15.991zM27.012 7.991H15c-.552 0-1 .448-1 1s.448 1 1 1h12.012c.552 0 1-.448 1-1S27.564 7.991 27.012 7.991zM11 7.991A1 1 0 1011 9.991 1 1 0 1011 7.991zM11 19.991A1 1 0 1011 21.991 1 1 0 1011 19.991zM11 23.991A1 1 0 1011 25.991 1 1 0 1011 23.991zM27.012 19.991H15c-.552 0-1 .448-1 1s.448 1 1 1h12.012c.552 0 1-.448 1-1S27.564 19.991 27.012 19.991zM27.012 23.991H15c-.552 0-1 .448-1 1s.448 1 1 1h12.012c.552 0 1-.448 1-1S27.564 23.991 27.012 23.991z" fill="#648484" />
</svg>