<svg xmlns="http://www.w3.org/2000/svg" viewBox="0 0 64 64">
  <path d="M30 4C28.783 4 27.847531 5.0782031 28.019531 6.2832031L28.302734 8.2636719C19.853734 9.2446719 15.892578 13.6 15.892578 18C15.892578 32.747 11.747703 40.637063 11.095703 41.789062L52.195312 40.373047C50.807313 37.334047 48.107422 29.896 48.107422 18C48.107422 13.599 44.146266 9.2446719 35.697266 8.2636719L35.980469 6.2832031C36.152469 5.0782031 35.217 4 34 4L30 4 z M 8 44C8 44 4 45 4 53L26.046875 53C26.547513 55.839248 29.016871 58 32 58C34.983129 58 37.452487 55.839248 37.953125 53L60 53C60 45 56 44 56 44L8 44 z" fill="#648484" />
</svg>