<svg xmlns="http://www.w3.org/2000/svg" viewBox="0 0 100 100"><path fill="#c7ede6" d="M88.141,55.405c0.3-0.616,0.566-1.264,0.796-1.943c2.633-7.77-1.349-17.078-9.733-19.325c-0.906-11.384-8.906-19.193-17.941-20.526c-10.341-1.525-19.814,5.044-22.966,15.485c-3.799-1.346-7.501-1.182-10.99,0.857c-1.583,0.732-3.031,1.812-4.33,3.233c-1.907,2.086-3.147,4.719-3.652,7.495c-0.748,0.118-1.483,0.236-2.176,0.484c-4.04,1.449-6.589,4.431-7.288,8.923c-0.435,2.797,0.443,5.587,0.933,6.714c1.935,4.455,6.422,6.98,10.981,6.312c0.227-0.033,0.557,0.069,0.752,0.233c0.241,7.12,3.698,13.417,8.884,17.014c8.321,5.772,19.027,3.994,25.781-3.921c2.894,2.96,6.338,4.398,10.384,3.876c4.023-0.519,7.147-2.739,9.426-6.349c1.053,0.283,2.051,0.691,3.083,0.804c4.042,0.442,7.324-1.165,9.732-4.8c0.922-1.391,1.793-3.194,1.793-6.354C91.611,60.362,90.318,57.394,88.141,55.405z"/><path fill="#fdfcef" d="M76.247,48.776c0,0,11.691,0,11.762,0c2.7,0,4.888-2.189,4.888-4.889c0-2.355-1.666-4.321-3.884-4.784c0.026-0.206,0.043-0.415,0.043-0.628c0-2.796-2.267-5.063-5.063-5.063c-1.651,0-3.113,0.794-4.037,2.017c-0.236-3.113-3.017-5.514-6.27-5.116c-2.379,0.291-4.346,2.13-4.784,4.486c-0.14,0.756-0.126,1.489,0.014,2.177c-0.638-0.687-1.546-1.119-2.557-1.119c-1.85,0-3.361,1.441-3.48,3.261c-0.84-0.186-1.754-0.174-2.717,0.188c-1.84,0.691-3.15,2.423-3.227,4.387c-0.109,2.789,2.12,5.085,4.885,5.085c0.21,0,0.948,0,1.118,0H73.09"/><path fill="#472b29" d="M88.008,49.276H76.247c-0.276,0-0.5-0.224-0.5-0.5s0.224-0.5,0.5-0.5h11.762c2.42,0,4.389-1.969,4.389-4.389c0-2.067-1.466-3.873-3.486-4.295c-0.254-0.053-0.426-0.292-0.394-0.551c0.022-0.186,0.039-0.374,0.039-0.566c0-2.517-2.047-4.563-4.563-4.563c-1.438,0-2.765,0.663-3.637,1.818c-0.126,0.165-0.343,0.237-0.54,0.178c-0.2-0.059-0.342-0.234-0.358-0.441c-0.104-1.377-0.778-2.67-1.85-3.549c-1.083-0.888-2.457-1.282-3.861-1.109c-2.165,0.266-3.955,1.943-4.353,4.081c-0.124,0.667-0.12,1.335,0.013,1.986c0.044,0.22-0.062,0.442-0.262,0.544c-0.197,0.104-0.442,0.061-0.595-0.104c-0.575-0.618-1.353-0.959-2.19-0.959c-1.568,0-2.878,1.227-2.98,2.793c-0.01,0.146-0.082,0.28-0.199,0.367c-0.116,0.089-0.269,0.118-0.407,0.089c-0.843-0.187-1.639-0.132-2.434,0.167c-1.669,0.628-2.836,2.211-2.903,3.939c-0.047,1.207,0.387,2.35,1.222,3.218s1.959,1.347,3.163,1.347h11.27c0.276,0,0.5,0.224,0.5,0.5s-0.224,0.5-0.5,0.5h-11.27c-1.479,0-2.858-0.587-3.884-1.653c-1.025-1.065-1.559-2.469-1.501-3.95c0.084-2.126,1.511-4.069,3.552-4.836c0.8-0.301,1.629-0.398,2.468-0.299c0.377-1.822,1.996-3.182,3.904-3.182c0.685,0,1.354,0.18,1.944,0.51c-0.001-0.386,0.035-0.772,0.107-1.159c0.476-2.562,2.619-4.573,5.214-4.891c1.675-0.203,3.321,0.266,4.616,1.329c1.004,0.822,1.716,1.95,2.038,3.191c1.012-0.915,2.318-1.425,3.713-1.425c3.067,0,5.563,2.496,5.563,5.563c0,0.083-0.002,0.166-0.007,0.248c2.254,0.673,3.848,2.776,3.848,5.164C93.397,46.859,90.98,49.276,88.008,49.276z"/><path fill="#fdfcef" d="M73.414,38.007c-1.808-0.119-3.365,1.13-3.476,2.789c-0.014,0.206-0.005,0.409,0.025,0.606c-0.349-0.394-0.865-0.661-1.458-0.7c-1.085-0.071-2.022,0.645-2.158,1.62c-0.197-0.054-0.403-0.09-0.616-0.104c-1.582-0.104-2.944,0.989-3.042,2.441"/><path fill="#472b29" d="M62.689,44.909c-0.006,0-0.011,0-0.017-0.001c-0.138-0.009-0.242-0.128-0.232-0.266c0.106-1.586,1.569-2.783,3.308-2.674c0.136,0.009,0.272,0.026,0.408,0.053c0.273-0.968,1.253-1.645,2.365-1.567c0.426,0.027,0.824,0.16,1.163,0.382c0.001-0.019,0.002-0.037,0.004-0.056c0.12-1.794,1.802-3.156,3.742-3.021c0.138,0.009,0.242,0.128,0.232,0.266c-0.008,0.132-0.118,0.233-0.249,0.233c-0.005,0-0.011,0-0.017-0.001c-1.674-0.11-3.109,1.037-3.211,2.557c-0.012,0.187-0.004,0.372,0.023,0.552c0.017,0.109-0.041,0.218-0.141,0.265c-0.102,0.045-0.221,0.022-0.294-0.061c-0.321-0.364-0.778-0.583-1.287-0.617c-0.948-0.038-1.774,0.556-1.893,1.404c-0.011,0.071-0.051,0.135-0.11,0.175s-0.135,0.051-0.203,0.032c-0.187-0.051-0.378-0.083-0.568-0.097c-1.44-0.088-2.687,0.897-2.775,2.209C62.929,44.807,62.82,44.909,62.689,44.909z"/><path fill="#fdfcef" d="M89.988,39.676c-1.699-0.801-3.664-0.234-4.389,1.267c-0.09,0.186-0.157,0.379-0.201,0.574"/><path fill="#472b29" d="M85.398,41.766c-0.019,0-0.037-0.002-0.056-0.007c-0.135-0.03-0.219-0.165-0.188-0.299c0.049-0.216,0.123-0.427,0.219-0.626c0.783-1.622,2.899-2.242,4.721-1.385c0.125,0.06,0.179,0.208,0.12,0.333c-0.06,0.126-0.209,0.177-0.333,0.12c-1.575-0.744-3.393-0.227-4.057,1.148c-0.08,0.166-0.142,0.342-0.184,0.521C85.615,41.688,85.512,41.766,85.398,41.766z"/><path fill="#fff" d="M17.806 47.44H7.776c-.276 0-.5-.224-.5-.5s.224-.5.5-.5h10.03c.276 0 .5.224.5.5S18.083 47.44 17.806 47.44zM20.688 47.44h-1.446c-.276 0-.5-.224-.5-.5s.224-.5.5-.5h1.446c.276 0 .5.224.5.5S20.965 47.44 20.688 47.44zM24.742 47.44h-2.546c-.276 0-.5-.224-.5-.5s.224-.5.5-.5h2.546c.276 0 .5.224.5.5S25.018 47.44 24.742 47.44zM24.742 49.305h-9.616c-.276 0-.5-.224-.5-.5s.224-.5.5-.5h9.616c.276 0 .5.224.5.5S25.018 49.305 24.742 49.305zM13.394 49.305h-.58c-.276 0-.5-.224-.5-.5s.224-.5.5-.5h.58c.276 0 .5.224.5.5S13.671 49.305 13.394 49.305zM11.017 49.305H9.561c-.276 0-.5-.224-.5-.5s.224-.5.5-.5h1.456c.276 0 .5.224.5.5S11.294 49.305 11.017 49.305zM20.153 45.576h-5.027c-.276 0-.5-.224-.5-.5s.224-.5.5-.5h5.027c.276 0 .5.224.5.5S20.429 45.576 20.153 45.576zM20.153 43.711h-1.257c-.276 0-.5-.224-.5-.5s.224-.5.5-.5h1.257c.276 0 .5.224.5.5S20.429 43.711 20.153 43.711zM16.884 51.171h-1.759c-.276 0-.5-.224-.5-.5s.224-.5.5-.5h1.759c.276 0 .5.224.5.5S17.161 51.171 16.884 51.171zM70.984 21.164h-10.03c-.276 0-.5-.224-.5-.5s.224-.5.5-.5h10.03c.276 0 .5.224.5.5S71.26 21.164 70.984 21.164zM73.866 21.164H72.42c-.276 0-.5-.224-.5-.5s.224-.5.5-.5h1.446c.276 0 .5.224.5.5S74.142 21.164 73.866 21.164zM77.921 21.164h-2.546c-.276 0-.5-.224-.5-.5s.224-.5.5-.5h2.546c.276 0 .5.224.5.5S78.197 21.164 77.921 21.164zM75.894 17.434h-9.616c-.276 0-.5-.224-.5-.5s.224-.5.5-.5h9.616c.276 0 .5.224.5.5S76.171 17.434 75.894 17.434zM64.547 17.434h-.58c-.276 0-.5-.224-.5-.5s.224-.5.5-.5h.58c.276 0 .5.224.5.5S64.823 17.434 64.547 17.434zM62.17 17.434h-1.456c-.276 0-.5-.224-.5-.5s.224-.5.5-.5h1.456c.276 0 .5.224.5.5S62.446 17.434 62.17 17.434zM73.332 19.298h-5.028c-.276 0-.5-.224-.5-.5s.224-.5.5-.5h5.028c.276 0 .5.224.5.5S73.608 19.298 73.332 19.298z"/><path fill="#fff" d="M73.332 17.434h-1.258c-.276 0-.5-.224-.5-.5s.224-.5.5-.5h1.258c.276 0 .5.224.5.5S73.608 17.434 73.332 17.434zM66.848 19.298H65.09c-.276 0-.5-.224-.5-.5s.224-.5.5-.5h1.759c.276 0 .5.224.5.5S67.125 19.298 66.848 19.298z"/><path fill="#00a5a5" d="M66.253,72.374H36.54c-3.766,0-6.847-3.081-6.847-6.847V35.814c0-3.766,3.081-6.847,6.847-6.847h29.713c3.766,0,6.847,3.081,6.847,6.847v29.713C73.1,69.293,70.019,72.374,66.253,72.374z"/><path fill="#472b29" d="M66.253,73.074H36.54c-4.162,0-7.548-3.386-7.548-7.547V35.814c0-4.162,3.386-7.548,7.548-7.548h29.713c4.162,0,7.548,3.386,7.548,7.548v29.713C73.8,69.688,70.415,73.074,66.253,73.074z M36.54,29.667c-3.39,0-6.147,2.758-6.147,6.147v29.713c0,3.39,2.758,6.146,6.147,6.146h29.713c3.39,0,6.147-2.757,6.147-6.146V35.814c0-3.39-2.758-6.147-6.147-6.147H36.54z"/><path fill="#fdfcee" d="M64.45,69.273H38.342c-3.052,0-5.549-2.497-5.549-5.549V37.616c0-3.052,2.497-5.549,5.549-5.549H64.45c3.052,0,5.549,2.497,5.549,5.549v26.109C69.999,66.776,67.502,69.273,64.45,69.273z"/><path fill="#472b29" d="M64.345 69.623H38.447c-3.311 0-6.004-2.692-6.004-6.003V37.721c0-3.311 2.693-6.004 6.004-6.004h24.662c.193 0 .35.156.35.35 0 .193-.156.35-.35.35H38.447c-2.925 0-5.305 2.38-5.305 5.305V63.62c0 2.924 2.38 5.304 5.305 5.304h25.898c2.925 0 5.305-2.38 5.305-5.304V49.293c0-.193.156-.35.35-.35s.35.156.35.35V63.62C70.349 66.93 67.656 69.623 64.345 69.623zM70 47.575c-.193 0-.35-.156-.35-.35v-2.756c0-.193.156-.35.35-.35s.35.156.35.35v2.756C70.349 47.419 70.193 47.575 70 47.575zM70 43.441c-.193 0-.35-.156-.35-.35v-1.378c0-.193.156-.35.35-.35s.35.156.35.35v1.378C70.349 43.285 70.193 43.441 70 43.441z"/><path fill="#cbc9bc" d="M62.863,59.194l-17.949,1.733c-0.406,0.039-0.766-0.258-0.805-0.663l-1.596-16.531c-0.039-0.406,0.258-0.766,0.663-0.805l17.949-1.733c0.406-0.039,0.766,0.258,0.805,0.663l1.596,16.531C63.566,58.794,63.269,59.155,62.863,59.194z"/><path fill="#472b29" d="M44.84,61.43c-0.286,0-0.561-0.099-0.784-0.283c-0.255-0.21-0.413-0.507-0.445-0.836L42.015,43.78c-0.032-0.327,0.065-0.648,0.275-0.904c0.211-0.256,0.508-0.414,0.838-0.446l17.949-1.733c0.688-0.062,1.284,0.435,1.352,1.113l1.595,16.531c0.032,0.328-0.065,0.65-0.276,0.905c-0.21,0.256-0.507,0.414-0.837,0.446l-17.949,1.732C44.922,61.428,44.881,61.43,44.84,61.43z M61.197,41.691c-0.008,0-0.016,0-0.023,0.001l-17.949,1.733c-0.085,0.008-0.138,0.057-0.161,0.085c-0.022,0.028-0.061,0.089-0.052,0.173l1.596,16.532c0.008,0.085,0.057,0.137,0.085,0.16s0.093,0.062,0.174,0.053l17.949-1.732c0.085-0.008,0.138-0.057,0.161-0.085c0.022-0.028,0.061-0.089,0.052-0.174l-1.595-16.531C61.422,41.784,61.317,41.691,61.197,41.691z"/><path fill="#fdfcef" d="M62.469,56.786l-17.515,4.289c-0.396,0.097-0.795-0.145-0.892-0.541l-3.95-16.131c-0.097-0.396,0.145-0.795,0.541-0.892l17.515-4.289c0.396-0.097,0.795,0.145,0.892,0.541l3.95,16.131C63.107,56.289,62.865,56.689,62.469,56.786z"/><path fill="#472b29" d="M44.776,61.596c-0.224,0-0.443-0.061-0.64-0.18c-0.282-0.172-0.481-0.443-0.56-0.764l-3.95-16.132c-0.079-0.321-0.027-0.653,0.144-0.937c0.172-0.282,0.443-0.481,0.764-0.56l17.516-4.289c0.323-0.079,0.654-0.028,0.937,0.144s0.481,0.443,0.56,0.764l3.95,16.131c0.162,0.664-0.245,1.335-0.907,1.497L45.073,61.56C44.974,61.585,44.875,61.596,44.776,61.596z M58.344,39.7c-0.018,0-0.037,0.002-0.057,0.007l-17.516,4.289c-0.083,0.021-0.128,0.076-0.146,0.107c-0.02,0.032-0.048,0.097-0.028,0.18l3.95,16.132c0.021,0.083,0.076,0.128,0.107,0.146c0.032,0.02,0.099,0.049,0.18,0.028L62.35,56.3c0.128-0.031,0.206-0.161,0.175-0.289l-3.95-16.13c-0.021-0.083-0.076-0.128-0.107-0.146C58.443,39.72,58.4,39.7,58.344,39.7z"/><path fill="#c6dff1" d="M43.217 42.784H59.25V55.143H43.217z" transform="rotate(-13.76 51.24 48.974)"/><path fill="#472b29" d="M44.752,57.144l-3.047-12.441l16.011-3.921l3.047,12.441L44.752,57.144z M42.25,45.033l2.832,11.566l15.136-3.706l-2.832-11.566L42.25,45.033z"/><path fill="#f1bc19" d="M47.155 45.015A1.336 1.336 0 1 0 47.155 47.687A1.336 1.336 0 1 0 47.155 45.015Z" transform="rotate(-13.76 47.162 46.361)"/><path fill="#472b29" d="M47.157,47.913c-0.703,0-1.344-0.479-1.519-1.19c-0.204-0.836,0.311-1.683,1.146-1.888c0.83-0.203,1.682,0.308,1.888,1.145c0.099,0.405,0.035,0.824-0.182,1.182c-0.216,0.356-0.558,0.607-0.963,0.707C47.403,47.898,47.279,47.913,47.157,47.913z M47.156,45.24c-0.088,0-0.177,0.011-0.265,0.032c-0.595,0.146-0.961,0.748-0.815,1.343c0.146,0.596,0.757,0.959,1.344,0.815c0.288-0.07,0.532-0.249,0.686-0.503c0.154-0.254,0.2-0.553,0.129-0.841C48.11,45.58,47.655,45.24,47.156,45.24z"/><path fill="#d5e27b" d="M54.779,47.663l1.395-2.856c0.094-0.192,0.341-0.24,0.5-0.097l2.177,1.955l1.515,5.885"/><path fill="#472b29" d="M60.148,52.607l-1.498-5.818l-2.127-1.911c-0.031-0.027-0.068-0.024-0.081-0.023c-0.018,0.004-0.048,0.015-0.066,0.052l-1.395,2.856l-0.404-0.197l1.395-2.856c0.076-0.155,0.216-0.263,0.384-0.296c0.168-0.032,0.339,0.015,0.469,0.13l2.229,2.002l0.017,0.066l1.515,5.885L60.148,52.607z"/><path fill="#88ae45" d="M48.125,56.086l3.811-10.316c0.077-0.207,0.342-0.274,0.508-0.129l7.921,6.91l0.124,0.507L48.125,56.086z"/><path fill="#472b29" d="M47.768,56.406l3.957-10.714c0.062-0.167,0.203-0.292,0.377-0.336c0.173-0.046,0.357-0.001,0.49,0.115l7.975,6.957l0.195,0.795L47.768,56.406z M52.238,45.789c-0.011,0-0.02,0.002-0.025,0.004c-0.015,0.004-0.051,0.017-0.065,0.057l-3.664,9.918l11.734-2.874l-0.053-0.219l-7.867-6.863C52.277,45.794,52.256,45.789,52.238,45.789z"/><path fill="#6f913d" d="M44.079,53.308l1.957-3.608c0.127-0.235,0.443-0.296,0.648-0.126l2.889,2.389l-1.446,4.123l-3.208,0.786L44.079,53.308z"/><path fill="#472b29" d="M44.75,57.144l-0.909-3.868l0.04-0.075l1.956-3.607c0.094-0.172,0.259-0.291,0.452-0.328c0.192-0.04,0.389,0.012,0.537,0.135l3.01,2.49l-1.538,4.386L44.75,57.144z M44.317,53.34l0.767,3.259l2.87-0.702l1.353-3.86l-2.767-2.289c-0.045-0.037-0.104-0.056-0.166-0.041c-0.061,0.012-0.112,0.049-0.142,0.102L44.317,53.34z"/><path fill="#fdfcef" d="M40.083,75.141c1.883,0,3.517,0,3.54,0c2.11,0,3.821-1.674,3.821-3.739c0-1.802-1.302-3.305-3.035-3.66c0.02-0.158,0.034-0.317,0.034-0.48c0-2.139-1.772-3.873-3.957-3.873c-1.29,0-2.433,0.607-3.155,1.543c-0.185-2.381-2.358-4.218-4.9-3.913c-1.859,0.223-3.397,1.629-3.739,3.431c-0.11,0.578-0.098,1.139,0.011,1.665c-0.498-0.525-1.208-0.856-1.998-0.856c-1.446,0-2.627,1.102-2.72,2.494c-0.657-0.142-1.371-0.133-2.123,0.143c-1.438,0.528-2.462,1.853-2.522,3.356c-0.085,2.133,1.657,3.889,3.818,3.889c0.164,0,0.741,0,0.874,0h7.934 M33.606,75.141h0.36"/><path fill="#472b29" d="M43.624,75.641h-3.541c-0.276,0-0.5-0.224-0.5-0.5s0.224-0.5,0.5-0.5h3.541c1.831,0,3.32-1.453,3.32-3.239c0-1.524-1.108-2.857-2.636-3.17c-0.255-0.053-0.428-0.293-0.396-0.552c0.017-0.137,0.029-0.276,0.029-0.419c0-1.859-1.551-3.372-3.457-3.372c-1.092,0-2.098,0.491-2.76,1.348c-0.125,0.164-0.342,0.23-0.538,0.174c-0.198-0.06-0.34-0.234-0.355-0.44c-0.079-1.02-0.565-1.944-1.369-2.604c-0.83-0.681-1.888-0.983-2.974-0.853c-1.646,0.197-3.006,1.442-3.307,3.027c-0.095,0.494-0.091,0.989,0.009,1.472c0.046,0.219-0.06,0.441-0.258,0.545c-0.197,0.103-0.438,0.063-0.595-0.1c-0.428-0.451-1.009-0.7-1.635-0.7c-1.17,0-2.146,0.891-2.221,2.027c-0.01,0.145-0.082,0.278-0.198,0.366c-0.115,0.087-0.264,0.118-0.406,0.09c-0.64-0.141-1.244-0.099-1.845,0.124c-1.263,0.463-2.146,1.631-2.195,2.905c-0.035,0.876,0.282,1.709,0.895,2.346c0.635,0.661,1.495,1.024,2.423,1.024h8.808c0.276,0,0.5,0.224,0.5,0.5s-0.224,0.5-0.5,0.5h-8.808c-1.185,0-2.331-0.485-3.144-1.331c-0.803-0.835-1.219-1.929-1.174-3.078c0.066-1.675,1.212-3.204,2.85-3.806c0.61-0.224,1.244-0.303,1.88-0.244c0.344-1.396,1.629-2.424,3.136-2.424c0.493,0,0.977,0.113,1.413,0.323c0.009-0.242,0.037-0.484,0.083-0.727c0.381-2.008,2.096-3.585,4.17-3.833c1.364-0.169,2.686,0.218,3.727,1.071c0.748,0.613,1.278,1.409,1.546,2.302c0.791-0.647,1.786-1.006,2.843-1.006c2.458,0,4.457,1.961,4.457,4.372c0,0.034-0.001,0.068-0.002,0.103c1.765,0.555,3.004,2.188,3.004,4.038C47.944,73.74,46.006,75.641,43.624,75.641z M33.965,75.641h-0.359c-0.276,0-0.5-0.224-0.5-0.5s0.224-0.5,0.5-0.5h0.359c0.276,0,0.5,0.224,0.5,0.5S34.242,75.641,33.965,75.641z"/><path fill="#472b29" d="M41.916 69.839c-.018 0-.036-.002-.055-.006-.135-.03-.22-.164-.189-.299.036-.163.094-.324.169-.479.605-1.226 2.274-1.678 3.723-1.006.125.058.18.206.121.332-.058.125-.205.179-.332.121-1.199-.555-2.576-.21-3.063.773-.058.119-.102.242-.129.368C42.133 69.759 42.031 69.839 41.916 69.839zM36.757 75.641H35.65c-.276 0-.5-.224-.5-.5s.224-.5.5-.5h1.106c.276 0 .5.224.5.5S37.033 75.641 36.757 75.641z"/></svg>