<svg xmlns="http://www.w3.org/2000/svg" viewBox="0 0 100 100"><path fill="#c7ede6" d="M87.215,57.71C88.35,55.555,89,53.105,89,50.5c0-6.621-4.159-12.257-10.001-14.478 C78.999,36.015,79,36.008,79,36c0-11.598-9.402-21-21-21c-9.784,0-17.981,6.701-20.313,15.757C36.211,30.272,34.638,30,33,30 c-7.692,0-14.023,5.793-14.89,13.252C12.906,44.353,9,48.969,9,54.5C9,60.851,14.149,66,20.5,66c0.177,0,0.352-0.012,0.526-0.022 C21.022,66.153,21,66.324,21,66.5C21,77.822,30.178,87,41.5,87c6.437,0,12.175-2.972,15.934-7.614C59.612,81.611,62.64,83,66,83 c4.65,0,8.674-2.65,10.666-6.518C77.718,76.817,78.837,77,80,77c6.075,0,11-4.925,11-11C91,62.689,89.53,59.727,87.215,57.71z"/><path fill="#fdfcef" d="M35.875,37.5c0,0,3.64,0,6.125,0s4.5-2.015,4.5-4.5c0-2.333-1.782-4.229-4.055-4.455 C42.467,28.364,42.5,28.187,42.5,28c0-2.485-2.015-4.5-4.5-4.5c-1.438,0-2.703,0.686-3.527,1.736 C34.333,22.6,32.171,20.5,29.5,20.5c-2.761,0-5,2.239-5,5c0,0.446,0.077,0.87,0.187,1.282C24.045,26.005,23.086,25.5,22,25.5 c-1.781,0-3.234,1.335-3.455,3.055C18.364,28.533,18.187,28.5,18,28.5c-2.485,0-4.5,2.015-4.5,4.5s2.015,4.5,4.5,4.5s9.5,0,9.5,0 h5.375V38h3V37.5z"/><path fill="#472b29" d="M29.5,20c-3.033,0-5.5,2.467-5.5,5.5c0,0.016,0,0.031,0,0.047C23.398,25.192,22.71,25,22,25 c-1.831,0-3.411,1.261-3.858,3.005C18.095,28.002,18.048,28,18,28c-2.757,0-5,2.243-5,5s2.243,5,5,5h14.875 c0.276,0,0.5-0.224,0.5-0.5s-0.224-0.5-0.5-0.5H18c-2.206,0-4-1.794-4-4s1.794-4,4-4c0.117,0,0.23,0.017,0.343,0.032l0.141,0.019 c0.021,0.003,0.041,0.004,0.062,0.004c0.246,0,0.462-0.185,0.495-0.437C19.232,27.125,20.504,26,22,26 c0.885,0,1.723,0.401,2.301,1.1c0.098,0.118,0.241,0.182,0.386,0.182c0.078,0,0.156-0.018,0.228-0.056 c0.209-0.107,0.314-0.346,0.254-0.573C25.054,26.218,25,25.852,25,25.5c0-2.481,2.019-4.5,4.5-4.5 c2.381,0,4.347,1.872,4.474,4.263c0.011,0.208,0.15,0.387,0.349,0.45c0.05,0.016,0.101,0.024,0.152,0.024 c0.15,0,0.296-0.069,0.392-0.192C35.638,24.563,36.779,24,38,24c2.206,0,4,1.794,4,4c0,0.117-0.017,0.23-0.032,0.343l-0.019,0.141 c-0.016,0.134,0.022,0.268,0.106,0.373c0.084,0.105,0.207,0.172,0.34,0.185C44.451,29.247,46,30.949,46,33c0,2.206-1.794,4-4,4 h-6.125c-0.276,0-0.5,0.224-0.5,0.5s0.224,0.5,0.5,0.5H42c2.757,0,5-2.243,5-5c0-2.397-1.689-4.413-4.003-4.877 C42.999,28.082,43,28.041,43,28c0-2.757-2.243-5-5-5c-1.176,0-2.293,0.416-3.183,1.164C34.219,21.76,32.055,20,29.5,20L29.5,20z"/><path fill="#472b29" d="M28,27c-1.403,0-2.609,0.999-2.913,2.341C24.72,29.119,24.301,29,23.875,29 c-1.202,0-2.198,0.897-2.353,2.068C21.319,31.022,21.126,31,20.937,31c-1.529,0-2.811,1.2-2.918,2.732 C18.01,33.87,18.114,33.99,18.251,34c0.006,0,0.012,0,0.018,0c0.13,0,0.24-0.101,0.249-0.232c0.089-1.271,1.151-2.268,2.419-2.268 c0.229,0,0.47,0.042,0.738,0.127c0.022,0.007,0.045,0.01,0.067,0.01c0.055,0,0.11-0.02,0.156-0.054 C21.962,31.537,22,31.455,22,31.375c0-1.034,0.841-1.875,1.875-1.875c0.447,0,0.885,0.168,1.231,0.473 c0.047,0.041,0.106,0.063,0.165,0.063c0.032,0,0.063-0.006,0.093-0.019c0.088-0.035,0.148-0.117,0.155-0.212 C25.623,28.512,26.712,27.5,28,27.5c0.208,0,0.425,0.034,0.682,0.107c0.023,0.007,0.047,0.01,0.07,0.01 c0.109,0,0.207-0.073,0.239-0.182c0.038-0.133-0.039-0.271-0.172-0.309C28.517,27.04,28.256,27,28,27L28,27z"/><path fill="#472b29" d="M41.883,28.5c-1.326,0-2.508,0.897-2.874,2.182c-0.038,0.133,0.039,0.271,0.172,0.309 C39.205,30.997,39.228,31,39.25,31c0.109,0,0.209-0.072,0.24-0.182C39.795,29.748,40.779,29,41.883,29 c0.117,0,0.23,0.014,0.342,0.029c0.012,0.002,0.023,0.003,0.035,0.003c0.121,0,0.229-0.092,0.246-0.217 c0.019-0.137-0.077-0.263-0.214-0.281C42.158,28.516,42.022,28.5,41.883,28.5L41.883,28.5z"/><path fill="#fff" d="M19.405,62H9.5C9.224,62,9,61.776,9,61.5S9.224,61,9.5,61h9.905c0.276,0,0.5,0.224,0.5,0.5 S19.682,62,19.405,62z"/><path fill="#fff" d="M22.5,62h-1c-0.276,0-0.5-0.224-0.5-0.5s0.224-0.5,0.5-0.5h1c0.276,0,0.5,0.224,0.5,0.5 S22.777,62,22.5,62z"/><path fill="#fff" d="M27.491,64H18.5c-0.276,0-0.5-0.224-0.5-0.5s0.224-0.5,0.5-0.5h8.991c0.276,0,0.5,0.224,0.5,0.5 S27.767,64,27.491,64z"/><path fill="#fff" d="M16.5,64h-1c-0.276,0-0.5-0.224-0.5-0.5s0.224-0.5,0.5-0.5h1c0.276,0,0.5,0.224,0.5,0.5 S16.777,64,16.5,64z"/><path fill="#fff" d="M13.5,64h-2c-0.276,0-0.5-0.224-0.5-0.5s0.224-0.5,0.5-0.5h2c0.276,0,0.5,0.224,0.5,0.5 S13.777,64,13.5,64z"/><path fill="#fff" d="M19.5,66h-2c-0.276,0-0.5-0.224-0.5-0.5s0.224-0.5,0.5-0.5h2c0.276,0,0.5,0.224,0.5,0.5 S19.776,66,19.5,66z"/><path fill="#fff" d="M22.5,57c-0.177,0-0.823,0-1,0c-0.276,0-0.5,0.224-0.5,0.5c0,0.276,0.224,0.5,0.5,0.5 c0.177,0,0.823,0,1,0c0.276,0,0.5-0.224,0.5-0.5C23,57.224,22.776,57,22.5,57z"/><path fill="#fff" d="M22.5,59c-0.177,0-4.823,0-5,0c-0.276,0-0.5,0.224-0.5,0.5c0,0.276,0.224,0.5,0.5,0.5 c0.177,0,4.823,0,5,0c0.276,0,0.5-0.224,0.5-0.5C23,59.224,22.776,59,22.5,59z"/><path fill="#fff" d="M27.5,61c-0.177,0-2.823,0-3,0c-0.276,0-0.5,0.224-0.5,0.5c0,0.276,0.224,0.5,0.5,0.5 c0.177,0,2.823,0,3,0c0.276,0,0.5-0.224,0.5-0.5C28,61.224,27.776,61,27.5,61z"/><g><path fill="#fff" d="M73.5,27h-10c-0.276,0-0.5-0.224-0.5-0.5s0.224-0.5,0.5-0.5h10c0.276,0,0.5,0.224,0.5,0.5 S73.776,27,73.5,27z"/><path fill="#fff" d="M77.5,27h-2c-0.276,0-0.5-0.224-0.5-0.5s0.224-0.5,0.5-0.5h2c0.276,0,0.5,0.224,0.5,0.5 S77.776,27,77.5,27z"/><path fill="#fff" d="M82.5,29h-10c-0.276,0-0.5-0.224-0.5-0.5s0.224-0.5,0.5-0.5h10c0.276,0,0.5,0.224,0.5,0.5 S82.777,29,82.5,29z"/><path fill="#fff" d="M70.5,29h-1c-0.276,0-0.5-0.224-0.5-0.5s0.224-0.5,0.5-0.5h1c0.276,0,0.5,0.224,0.5,0.5 S70.776,29,70.5,29z"/><path fill="#fff" d="M67.375,29H65.5c-0.276,0-0.5-0.224-0.5-0.5s0.224-0.5,0.5-0.5h1.875c0.276,0,0.5,0.224,0.5,0.5 S67.651,29,67.375,29z"/><path fill="#fff" d="M76.5,25h-5c-0.276,0-0.5-0.224-0.5-0.5s0.224-0.5,0.5-0.5h5c0.276,0,0.5,0.224,0.5,0.5 S76.777,25,76.5,25z"/><path fill="#fff" d="M73.5,31h-2c-0.276,0-0.5-0.224-0.5-0.5s0.224-0.5,0.5-0.5h2c0.276,0,0.5,0.224,0.5,0.5 S73.776,31,73.5,31z"/></g><g><path fill="#edf7f5" d="M37.727,78.3c-2.771,0-5.026-2.215-5.026-4.937V33.637c0-2.722,2.255-4.937,5.026-4.937h20.709 L71.3,41.365v31.998c0,2.722-2.255,4.937-5.026,4.937H37.727z"/><path fill="#472b29" d="M58.149,29.4l6.212,6.115l6.239,6.143v31.705c0,2.336-1.941,4.237-4.326,4.237H37.726 c-2.386,0-4.326-1.901-4.326-4.237V33.637c0-2.336,1.941-4.237,4.326-4.237h0.832h7.869H58.149 M58.723,28H46.427h-7.869h-0.832 C34.577,28,32,30.536,32,33.637v39.726c0,3.1,2.577,5.637,5.726,5.637h28.547C69.423,79,72,76.464,72,73.363V41.071 C66.836,35.988,63.886,33.083,58.723,28L58.723,28z"/><path fill="#85cfcc" d="M58.5,29v8.202c0,2.914,2.396,5.298,5.325,5.298H72"/><path fill="#472b29" d="M72,43h-8.175C60.613,43,58,40.399,58,37.202V29h1v8.202C59,39.848,61.165,42,63.825,42H72V43z"/><path fill="#472b29" d="M48.5,32.75h-6c-0.138,0-0.25-0.112-0.25-0.25s0.112-0.25,0.25-0.25h6 c0.138,0,0.25,0.112,0.25,0.25S48.638,32.75,48.5,32.75z"/><path fill="#472b29" d="M64.781,74.75H39.219c-1.637,0-2.969-1.332-2.969-2.969V35.219c0-1.637,1.332-2.969,2.969-2.969 H40.5c0.138,0,0.25,0.112,0.25,0.25s-0.112,0.25-0.25,0.25h-1.281c-1.361,0-2.469,1.107-2.469,2.469v36.563 c0,1.361,1.107,2.469,2.469,2.469h25.563c1.361,0,2.469-1.107,2.469-2.469V60.5c0-0.138,0.112-0.25,0.25-0.25 s0.25,0.112,0.25,0.25v11.281C67.75,73.418,66.418,74.75,64.781,74.75z"/><g><path fill="#472b29" d="M67.5,58.75c-0.138,0-0.25-0.112-0.25-0.25v-5c0-0.138,0.112-0.25,0.25-0.25s0.25,0.112,0.25,0.25 v5C67.75,58.638,67.638,58.75,67.5,58.75z"/></g><g><path fill="#472b29" d="M67.5,51.333c-0.138,0-0.25-0.112-0.25-0.25v-2.25c0-0.138,0.112-0.25,0.25-0.25 s0.25,0.112,0.25,0.25v2.25C67.75,51.221,67.638,51.333,67.5,51.333z"/></g></g><g><path fill="#a1a1ca" d="M61.169,59.5c1.993,0,3.609-1.678,3.609-3.748c0-1.907-1.376-3.463-3.15-3.7 c0.029-0.191,0.057-0.384,0.057-0.583c0-2.07-1.616-3.748-3.609-3.748c-1.064,0-2.01,0.487-2.671,1.247 c-0.396-1.936-2.049-3.389-4.031-3.389c-2.278,0-4.124,1.918-4.124,4.283c0,0.205,0.031,0.4,0.058,0.597 c-0.441-0.368-0.995-0.597-1.605-0.597c-1.266,0-2.314,0.95-2.532,2.2c-0.184-0.03-0.369-0.059-0.562-0.059 c-1.993,0-3.609,1.678-3.609,3.748s1.616,3.748,3.609,3.748C44.602,59.5,59.176,59.5,61.169,59.5z"/><path fill="#472b29" d="M61.169,60h-18.56c-2.266,0-4.109-1.906-4.109-4.248s1.843-4.248,4.109-4.248 c0.063,0,0.125,0.003,0.186,0.007c0.418-1.269,1.576-2.148,2.907-2.148c0.365,0,0.72,0.067,1.056,0.197 c0.151-2.497,2.164-4.48,4.615-4.48c1.891,0,3.578,1.21,4.278,2.974c0.701-0.536,1.55-0.832,2.424-0.832 c2.266,0,4.109,1.906,4.109,4.248c0,0.062-0.002,0.123-0.006,0.183c1.797,0.47,3.1,2.152,3.1,4.1 C65.278,58.094,63.435,60,61.169,60z M42.609,52.505c-1.714,0-3.109,1.457-3.109,3.248S40.895,59,42.609,59h18.56 c1.714,0,3.109-1.457,3.109-3.248c0-1.62-1.167-2.998-2.716-3.204c-0.133-0.018-0.253-0.088-0.334-0.195 c-0.081-0.107-0.114-0.242-0.095-0.375c0.025-0.167,0.051-0.335,0.051-0.509c0-1.791-1.395-3.248-3.109-3.248 c-0.876,0-1.691,0.382-2.293,1.075c-0.125,0.144-0.323,0.203-0.504,0.156c-0.184-0.048-0.325-0.197-0.363-0.383 c-0.355-1.732-1.844-2.989-3.542-2.989c-1.999,0-3.625,1.697-3.625,3.783c0,0.154,0.022,0.302,0.042,0.45 c0.028,0.204-0.067,0.445-0.248,0.545c-0.18,0.1-0.398,0.119-0.557-0.013c-0.377-0.315-0.822-0.481-1.284-0.481 c-1.002,0-1.859,0.751-2.039,1.786c-0.046,0.27-0.302,0.452-0.573,0.408C42.932,52.531,42.774,52.505,42.609,52.505z"/></g><g><path fill="#fdfcef" d="M82.5,70.5c0,0,1.567,0,3.5,0s3.5-1.567,3.5-3.5c0-1.781-1.335-3.234-3.055-3.455 C86.473,63.366,86.5,63.187,86.5,63c0-1.933-1.567-3.5-3.5-3.5c-1.032,0-1.95,0.455-2.59,1.165 c-0.384-1.808-1.987-3.165-3.91-3.165c-2.209,0-4,1.791-4,4c0,0.191,0.03,0.374,0.056,0.558C72.128,61.714,71.592,61.5,71,61.5 c-1.228,0-2.245,0.887-2.455,2.055C68.366,63.527,68.187,63.5,68,63.5c-1.933,0-3.5,1.567-3.5,3.5s1.567,3.5,3.5,3.5s7.5,0,7.5,0 V71h7V70.5z"/><path fill="#472b29" d="M84.25,66C84.112,66,84,65.888,84,65.75c0-1.223,0.995-2.218,2.218-2.218 c0.034,0.009,0.737-0.001,1.244,0.136c0.133,0.036,0.212,0.173,0.176,0.306c-0.036,0.134-0.173,0.213-0.306,0.176 c-0.444-0.12-1.1-0.12-1.113-0.118c-0.948,0-1.719,0.771-1.719,1.718C84.5,65.888,84.388,66,84.25,66z"/><circle cx="77.5" cy="70.5" r=".5" fill="#472b29"/><path fill="#472b29" d="M86,71h-3.5c-0.276,0-0.5-0.224-0.5-0.5s0.224-0.5,0.5-0.5H86c1.654,0,3-1.346,3-3 c0-1.496-1.125-2.768-2.618-2.959c-0.134-0.018-0.255-0.088-0.336-0.196s-0.115-0.244-0.094-0.377C85.975,63.314,86,63.16,86,63 c0-1.654-1.346-3-3-3c-0.85,0-1.638,0.355-2.219,1c-0.125,0.139-0.321,0.198-0.5,0.148c-0.182-0.049-0.321-0.195-0.36-0.379 C79.58,59.165,78.141,58,76.5,58c-1.93,0-3.5,1.57-3.5,3.5c0,0.143,0.021,0.28,0.041,0.418c0.029,0.203-0.063,0.438-0.242,0.54 c-0.179,0.102-0.396,0.118-0.556-0.01C71.878,62.155,71.449,62,71,62c-0.966,0-1.792,0.691-1.963,1.644 c-0.048,0.267-0.296,0.446-0.569,0.405C68.314,64.025,68.16,64,68,64c-1.654,0-3,1.346-3,3s1.346,3,3,3h7.5 c0.276,0,0.5,0.224,0.5,0.5S75.776,71,75.5,71H68c-2.206,0-4-1.794-4-4s1.794-4,4-4c0.059,0,0.116,0.002,0.174,0.006 C68.588,61.82,69.711,61,71,61c0.349,0,0.689,0.061,1.011,0.18C72.176,58.847,74.126,57,76.5,57c1.831,0,3.466,1.127,4.153,2.774 C81.333,59.276,82.155,59,83,59c2.206,0,4,1.794,4,4c0,0.048-0.001,0.095-0.004,0.142C88.739,63.59,90,65.169,90,67 C90,69.206,88.206,71,86,71z"/><path fill="#472b29" d="M80.5,70c-0.159,0-0.841,0-1,0c-0.276,0-0.5,0.224-0.5,0.5c0,0.276,0.224,0.5,0.5,0.5 c0.159,0,0.841,0,1,0c0.276,0,0.5-0.224,0.5-0.5C81,70.224,80.776,70,80.5,70z"/></g></svg>